<?xml version="1.0" encoding="utf-8"?>
<!-- Generator: Adobe Illustrator 24.0.1, SVG Export Plug-In . SVG Version: 6.00 Build 0)  -->
<svg version="1.1" id="Layer_1" xmlns="http://www.w3.org/2000/svg" xmlns:xlink="http://www.w3.org/1999/xlink" x="0px" y="0px"
	 viewBox="0 0 595.28 841.89" style="enable-background:new 0 0 595.28 841.89;" xml:space="preserve">
<style type="text/css">
	.st0{fill:none;stroke:#000000;stroke-width:1.7719;stroke-linecap:round;stroke-miterlimit:10;}
	.st1{fill:none;stroke:#000000;stroke-width:1.9657;stroke-linecap:round;stroke-miterlimit:10;}
	.st2{fill:#FFFFFF;stroke:#000000;stroke-miterlimit:10;}
	.st3{font-family:'AdobeArabic-Regular';}
	.st4{font-size:18.6737px;}
</style>
<g>
	<path class="st0" d="M328.93,400.83c-1.45-2.17-3.99-3.59-6.87-3.58c-0.62,0-1.22,0.08-1.8,0.21c-0.11-0.17-2.89-4.21-7.71-3.92
		c-4.13,0.25-6.36,3.48-6.62,3.86c-0.72-0.2-1.48-0.3-2.27-0.3c-4.47,0.03-8.06,3.53-8.03,7.81c0,0.35,0.04,0.7,0.09,1.04
		c-3.92,0.56-6.93,3.81-6.9,7.72c0.02,2.58,1.35,4.85,3.38,6.24c-2.77,2-3.73,5.66-2.06,8.96c1.19,2.36,3.45,3.99,5.95,4.58
		c-0.51,2.39,0.41,5.06,2.72,7.03c2.79,2.38,6.75,3,9.84,1.79c0.76,0.46,5.48,3.19,11.44,1.65c6.23-1.61,8.85-6.6,9.22-7.34"/>
	<path class="st0" d="M291.83,419.92c1.14,0.62,5.17,2.62,10.12,1.47c0.56-0.13,1.73-0.4,3.07-1.03"/>
	<path class="st0" d="M307.19,419.84c1.83,0.76,4.57,1.6,7.93,1.63c7.34,0.06,12.52-3.8,14.23-5.19"/>
	<path class="st0" d="M315.36,408.52c0,0-2.24-7.33,4.51-10.99"/>
	<path class="st0" d="M295.8,406.42c0,0,1.94,3.84,6.73,3.35"/>
	<path class="st0" d="M310.08,401.28c0,0-1.35-3.46-4.64-3.94"/>
	<path class="st0" d="M309.15,442.09c0,0,4.2-2.39,4.45-7.15"/>
	<path class="st0" d="M297.2,430.95c0.91-1.62,2.51-2.59,4.11-2.46c1.1,0.09,1.88,0.67,2.24,0.98c-0.17,0.65-0.55,1.68-1.45,2.56
		c-2.38,2.33-6.03,1.36-6.25,1.3"/>
	<path class="st0" d="M304.15,417.94c-0.03-1.86,0.87-3.5,2.32-4.2c0.99-0.47,1.96-0.37,2.43-0.28c0.18,0.65,0.37,1.73,0.03,2.95
		c-0.88,3.21-4.53,4.21-4.75,4.26"/>
	<path class="st1" d="M319.65,433.85c0.21,0.38,1.55,2.81,4.52,3.51c2.5,0.59,4.49-0.43,4.96-0.69"/>
	<path class="st1" d="M323.14,409.26c2.95,2.43,4.87,4.84,6.07,6.57c2.21,3.18,2.47,4.8,2.53,5.28c0.4,2.91-0.83,5.3-1.49,6.39
		c-1.71-0.34-3.04-1.58-3.38-3.14c-0.35-1.59,0.47-2.88,0.64-3.14"/>
</g>
<text transform="matrix(1 0 0 1 291.8351 459.1566)" class="st2 st3 st4">TULSI</text>
</svg>
